<?xml version="1.0" encoding="utf-8"?>
<svg version="1.1" xmlns="http://www.w3.org/2000/svg" width="400" height="400">
<g transform="translate(10 -70)">
  <path d="M 183.993 119.161 C 186.81 121.408 189.524 123.73 192.212 126.129 C 193.057 126.88 193.903 127.63 194.774 128.403 C 212.192 144.786 222.508 168.392 223.415 192.251 C 223.922 220.072 215.347 243.722 196.212 264.278 C 192.31 268.256 188.221 271.903 183.876 275.391 C 180.08 279.357 179.965 283.724 179.774 289.004 C 179.349 295.892 178.884 300.526 173.774 305.504 C 169.214 308.397 164.905 308.282 159.617 308.291 C 158.857 308.296 158.097 308.301 157.314 308.306 C 154.805 308.32 152.295 308.327 149.786 308.333 C 148.037 308.338 146.289 308.344 144.54 308.35 C 140.874 308.36 137.208 308.366 133.542 308.37 C 128.855 308.375 124.168 308.399 119.48 308.428 C 115.868 308.446 112.255 308.452 108.643 308.453 C 106.915 308.456 105.188 308.464 103.46 308.477 C 101.038 308.494 98.617 308.492 96.195 308.486 C 95.488 308.495 94.78 308.504 94.052 308.514 C 88.991 308.472 85.632 307.417 81.212 305.129 C 75.517 299.285 76.01 293.465 75.688 285.637 C 74.622 277.786 70.307 274.048 64.649 269.067 C 44.859 250.956 33.414 228.229 32.009 201.227 C 31.452 172.664 41.247 149.012 60.837 128.129 C 93.481 96.631 147.085 92.206 183.993 119.161 Z M 66.212 137.129 C 65.451 137.866 64.691 138.602 63.907 139.36 C 48.48 155.294 40.977 177.405 41.239 199.388 C 42.323 225.268 54.443 246.711 73.212 264.129 C 74.477 265.136 75.748 266.137 77.024 267.129 C 84.132 273.233 84.789 281.536 85.529 290.365 C 85.767 294.706 85.767 294.706 88.212 298.129 C 90.731 298.328 93.139 298.402 95.659 298.388 C 96.427 298.392 97.194 298.395 97.985 298.399 C 100.53 298.408 103.074 298.402 105.618 298.395 C 107.382 298.396 109.145 298.398 110.909 298.401 C 114.608 298.404 118.306 298.4 122.005 298.39 C 126.754 298.379 131.502 298.385 136.25 298.397 C 139.893 298.405 143.535 298.402 147.178 298.397 C 148.929 298.396 150.68 298.397 152.431 298.402 C 154.876 298.407 157.32 298.399 159.765 298.388 C 160.857 298.394 160.857 298.394 161.972 298.401 C 166.042 298.485 166.042 298.485 169.212 296.129 C 169.555 293.453 169.81 290.816 170.024 288.129 C 171.64 273.05 178.583 266.466 189.528 256.651 C 205.634 242.096 213.031 220.355 214.212 199.129 C 214.417 174.381 204.677 152.67 187.587 135.004 C 171.534 119.097 150.219 110.97 127.712 110.754 C 103.524 110.987 83.416 120.237 66.212 137.129 Z" fill="#ededed" style="transform-box: fill-box; transform-origin: 50% 50%;" transform="matrix(0.707107, -0.707107, 0.707107, 0.707107, 0.000007, -0.000002)"/>
  <path d="M 180.968 277.501 C 184.03 277.751 184.03 277.751 186.968 278.501 C 188.39 281.345 188.114 283.799 188.144 286.977 C 188.167 288.288 188.191 289.599 188.216 290.95 C 188.251 293.03 188.28 295.109 188.294 297.19 C 188.313 309.549 188.313 309.549 194.308 320.006 C 200.732 325.981 208.407 325.809 216.651 325.801 C 217.666 325.806 218.68 325.81 219.725 325.814 C 221.862 325.82 224 325.821 226.137 325.816 C 229.391 325.813 232.645 325.837 235.899 325.862 C 237.983 325.864 240.067 325.865 242.151 325.864 C 243.599 325.878 243.599 325.878 245.075 325.892 C 253.108 325.837 260.066 324.402 265.968 318.501 C 266.714 317.307 267.427 316.092 268.108 314.86 C 268.722 313.751 269.336 312.643 269.968 311.501 C 268.753 311.507 268.753 311.507 267.514 311.514 C 259.891 311.554 252.269 311.585 244.647 311.604 C 240.728 311.615 236.809 311.629 232.89 311.651 C 229.11 311.673 225.33 311.685 221.549 311.69 C 220.105 311.694 218.661 311.701 217.217 311.712 C 215.199 311.727 213.18 311.727 211.162 311.728 C 209.436 311.734 209.436 311.734 207.676 311.741 C 204.968 311.501 204.968 311.501 202.968 309.501 C 202.655 306.501 202.655 306.501 202.968 303.501 C 206.533 301.124 208.046 301.257 212.275 301.274 C 214.227 301.274 214.227 301.274 216.218 301.274 C 217.638 301.284 219.059 301.295 220.479 301.305 C 221.933 301.309 223.386 301.312 224.839 301.314 C 228.661 301.321 232.483 301.341 236.305 301.363 C 240.206 301.384 244.108 301.393 248.009 301.403 C 255.662 301.424 263.315 301.46 270.968 301.501 C 270.968 296.881 270.968 292.261 270.968 287.501 C 268.091 287.516 268.091 287.516 265.156 287.532 C 258.818 287.565 252.48 287.588 246.141 287.604 C 242.299 287.615 238.456 287.629 234.613 287.651 C 230.904 287.673 227.196 287.685 223.487 287.69 C 222.072 287.694 220.658 287.701 219.243 287.712 C 217.261 287.727 215.279 287.727 213.297 287.728 C 212.169 287.732 211.041 287.737 209.878 287.741 C 207.027 287.506 205.381 286.983 202.968 285.501 C 202.843 282.626 202.843 282.626 202.968 279.501 C 205.834 276.634 207.833 277.234 211.848 277.21 C 212.556 277.203 213.263 277.197 213.992 277.19 C 216.337 277.171 218.682 277.167 221.026 277.165 C 222.653 277.158 224.28 277.151 225.906 277.144 C 229.318 277.132 232.731 277.129 236.143 277.13 C 240.519 277.13 244.895 277.103 249.271 277.068 C 252.631 277.046 255.991 277.042 259.352 277.043 C 260.965 277.041 262.579 277.032 264.192 277.017 C 266.448 276.997 268.702 277.003 270.958 277.015 C 272.242 277.012 273.526 277.009 274.849 277.006 C 277.968 277.501 277.968 277.501 279.882 279.365 C 281.271 282.097 281.356 284.096 281.366 287.157 C 281.37 288.263 281.374 289.369 281.378 290.508 C 281.366 291.661 281.355 292.813 281.343 294.001 C 281.354 295.122 281.366 296.244 281.378 297.399 C 281.341 308.063 280.2 318.179 273.069 326.524 C 266.777 332.442 260.209 335.587 251.624 335.678 C 250.021 335.697 250.021 335.697 248.385 335.716 C 247.234 335.724 246.083 335.731 244.897 335.739 C 243.706 335.747 242.515 335.755 241.287 335.763 C 238.764 335.777 236.24 335.788 233.717 335.796 C 229.878 335.813 226.041 335.857 222.202 335.901 C 219.746 335.911 217.291 335.92 214.835 335.926 C 213.127 335.953 213.127 335.953 211.384 335.979 C 201.858 335.954 193.633 333.889 186.503 327.282 C 180.938 320.824 178.813 314.227 178.8 305.84 C 178.795 304.722 178.795 304.722 178.79 303.581 C 178.785 302.006 178.782 300.432 178.782 298.858 C 178.78 296.444 178.762 294.03 178.743 291.616 C 178.74 290.087 178.738 288.557 178.737 287.028 C 178.73 286.304 178.723 285.58 178.716 284.834 C 178.739 279.729 178.739 279.729 180.968 277.501 Z" fill="#ededed" style="transform-box: fill-box; transform-origin: 50% 50%;" transform="matrix(0.707107, -0.707107, 0.707107, 0.707107, -0.000004, 0)"/>
  <path d="M 271.618 194.073 C 274.357 193.548 274.357 193.548 277.618 194.073 C 279.949 195.816 281.79 197.425 283.794 199.487 C 284.364 200.054 284.933 200.62 285.52 201.203 C 286.725 202.408 287.922 203.621 289.112 204.84 C 290.896 206.663 292.706 208.455 294.523 210.245 C 309.853 225.587 319.748 242.179 319.922 264.342 C 319.921 265.624 319.92 266.905 319.919 268.226 C 319.923 269.576 319.927 270.926 319.932 272.276 C 319.94 275.085 319.939 277.895 319.934 280.705 C 319.928 284.308 319.945 287.912 319.968 291.515 C 319.983 294.294 319.984 297.072 319.981 299.851 C 319.982 301.826 319.995 303.802 320.01 305.777 C 320.003 306.969 319.997 308.161 319.991 309.39 C 319.991 310.442 319.992 311.494 319.993 312.578 C 319.807 313.813 319.807 313.813 319.618 315.073 C 316.618 317.073 316.618 317.073 314.206 316.941 C 311.07 315.89 309.556 314.525 307.211 312.2 C 306.374 311.378 305.537 310.557 304.674 309.71 C 303.784 308.816 302.894 307.921 301.978 306.999 C 301.055 306.083 300.132 305.166 299.181 304.222 C 297.231 302.282 295.289 300.335 293.352 298.383 C 290.873 295.887 288.375 293.412 285.87 290.943 C 283.477 288.578 281.104 286.194 278.728 283.812 C 277.83 282.927 276.932 282.043 276.007 281.131 C 275.182 280.294 274.358 279.457 273.508 278.594 C 272.779 277.864 272.05 277.135 271.299 276.383 C 269.25 273.567 268.779 271.533 268.618 268.073 C 270.618 266.073 270.618 266.073 273.256 265.497 C 278.417 266.382 280.889 269.6 284.423 273.292 C 285.509 274.391 285.509 274.391 286.617 275.512 C 288.924 277.852 291.208 280.212 293.493 282.573 C 295.054 284.165 296.617 285.754 298.181 287.343 C 302.009 291.238 305.82 295.149 309.618 299.073 C 309.693 293.472 309.747 287.872 309.783 282.27 C 309.798 280.371 309.818 278.471 309.845 276.571 C 310.024 263.237 310.131 250.394 303.493 238.386 C 302.975 237.413 302.457 236.439 301.923 235.437 C 295.569 225.418 285.877 217.278 277.376 209.134 C 276.518 208.293 275.659 207.452 274.775 206.585 C 273.999 205.837 273.224 205.089 272.425 204.318 C 270.396 201.798 269.773 200.293 269.618 197.073 C 270.278 196.083 270.938 195.093 271.618 194.073 Z" fill="#ededed" style="transform-box: fill-box; transform-origin: 50% 50%;" transform="matrix(0.707107, -0.707107, 0.707107, 0.707107, -0.000002, -0.000009)"/>
  <path d="M 197.715 310.517 C 200.015 310.934 200.015 310.934 202.015 312.934 C 202.466 315.209 202.466 315.209 202.015 317.934 C 200.329 320.021 198.736 321.726 196.792 323.54 C 196.254 324.064 195.716 324.588 195.161 325.128 C 193.436 326.805 191.696 328.464 189.952 330.122 C 176.769 342.72 163.256 356.813 162.674 376.2 C 162.675 378.052 162.691 379.903 162.722 381.754 C 162.726 382.739 162.73 383.724 162.735 384.738 C 162.751 387.846 162.789 390.952 162.827 394.059 C 162.843 396.182 162.856 398.304 162.868 400.426 C 162.901 405.596 162.953 410.765 163.015 415.934 C 163.415 415.521 163.815 415.107 164.227 414.681 C 168.395 410.381 172.583 406.102 176.784 401.835 C 178.35 400.24 179.909 398.639 181.463 397.033 C 183.698 394.726 185.952 392.438 188.21 390.153 C 188.901 389.431 189.592 388.709 190.304 387.966 C 195.211 383.055 195.211 383.055 199.44 382.42 C 202.015 382.934 202.015 382.934 203.015 383.934 C 203.413 387.495 203.426 389.329 201.385 392.333 C 200.24 393.49 200.24 393.49 199.071 394.67 C 198.21 395.554 197.348 396.438 196.46 397.348 C 195.508 398.293 194.555 399.237 193.601 400.18 C 192.628 401.16 191.656 402.14 190.685 403.121 C 188.648 405.171 186.601 407.209 184.546 409.241 C 181.914 411.844 179.312 414.475 176.718 417.116 C 174.718 419.146 172.702 421.159 170.68 423.167 C 169.714 424.131 168.753 425.1 167.798 426.075 C 166.461 427.435 165.098 428.77 163.735 430.104 C 162.967 430.87 162.199 431.635 161.407 432.424 C 159.015 433.934 159.015 433.934 155.782 433.799 C 154.869 433.513 153.956 433.228 153.015 432.934 C 151.751 430.406 151.874 428.634 151.854 425.805 C 151.844 424.732 151.835 423.659 151.825 422.554 C 151.82 421.387 151.816 420.219 151.812 419.016 C 151.806 417.812 151.8 416.607 151.795 415.366 C 151.785 412.804 151.779 410.243 151.775 407.681 C 151.765 403.808 151.734 399.935 151.702 396.061 C 151.565 364.891 151.565 364.891 158.64 351.622 C 158.933 351.01 159.225 350.398 159.527 349.768 C 162.664 343.64 167.303 338.888 172.015 333.934 C 172.47 333.454 172.925 332.974 173.394 332.48 C 176.314 329.407 179.266 326.368 182.246 323.353 C 183.271 322.311 184.291 321.264 185.305 320.211 C 186.796 318.667 188.302 317.139 189.812 315.614 C 190.692 314.714 191.572 313.814 192.479 312.887 C 195.015 310.934 195.015 310.934 197.715 310.517 Z" fill="#ededed" style="transform-box: fill-box; transform-origin: 50% 50%;" transform="matrix(0.707107, -0.707107, 0.707107, 0.707107, -0.000017, 0.000001)"/>
</g>
</svg>