<?xml version="1.0" encoding="UTF-8"?>
<svg version="1.1" xmlns="http://www.w3.org/2000/svg" width="400" height="400">
<g transform="translate(30, -40)">
<path d="M0 0 C2.81681269 2.24712024 5.53044458 4.56959371 8.21875 6.96875 C9.064375 7.71898438 9.91 8.46921875 10.78125 9.2421875 C28.19892178 25.62568502 38.51526109 49.23158303 39.421875 73.08984375 C39.92866029 100.91171476 31.35421527 124.56151191 12.21875 145.1171875 C8.31715795 149.09498252 4.22750838 152.74259536 -0.1171875 156.23046875 C-3.91342341 160.19602034 -4.02809762 164.56325671 -4.21875 169.84375 C-4.64383036 176.7314928 -5.10912053 181.36513667 -10.21875 186.34375 C-14.77944799 189.23589994 -19.0883116 189.12159613 -24.3762207 189.12988281 C-25.13609283 189.13484772 -25.89596497 189.13981262 -26.67886353 189.14492798 C-29.18826205 189.15951134 -31.69759734 189.16634531 -34.20703125 189.171875 C-35.95574444 189.17762973 -37.70445761 189.18338742 -39.45317078 189.18914795 C-43.11909274 189.19964714 -46.78499285 189.20549684 -50.45092773 189.20898438 C-55.13828457 189.21446595 -59.82535048 189.23849131 -64.51261616 189.26695633 C-68.12524753 189.28562049 -71.73780935 189.29079032 -75.35048485 189.29232025 C-77.07798032 189.29533892 -78.8054748 189.30334084 -80.53292274 189.31650543 C-82.95486945 189.33364483 -85.37611222 189.33166669 -87.7980957 189.32519531 C-88.50535294 189.3344101 -89.21261017 189.34362488 -89.94129944 189.3531189 C-95.00159684 189.31096627 -98.36089204 188.25657248 -102.78125 185.96875 C-108.47565822 180.12448894 -107.98348251 174.30382104 -108.3046875 166.4765625 C-109.37129149 158.62565769 -113.685876 154.88763198 -119.34375 149.90625 C-139.1341905 131.79514629 -150.57886562 109.06840371 -151.984375 82.06640625 C-152.54064315 53.50309287 -142.74638982 29.85100542 -123.15625 8.96875 C-90.51251 -22.52959562 -36.90775706 -26.95510347 0 0 Z M-117.78125 17.96875 C-118.54179688 18.70480469 -119.30234375 19.44085938 -120.0859375 20.19921875 C-135.51267777 36.1330664 -143.0157573 58.24455431 -142.75439453 80.22753906 C-141.66999838 106.10696214 -129.5504297 127.549871 -110.78125 144.96875 C-109.5155943 145.97529508 -108.24521268 146.97594569 -106.96875 147.96875 C-99.86152659 154.07240714 -99.2036873 162.37516339 -98.46362305 171.2043457 C-98.22618894 175.5449402 -98.22618894 175.5449402 -95.78125 178.96875 C-93.26253008 179.1670245 -90.85377334 179.24154457 -88.33398438 179.22753906 C-87.56637283 179.2310437 -86.79876129 179.23454834 -86.00788879 179.23815918 C-83.46350128 179.24698168 -80.91939047 179.2411256 -78.375 179.234375 C-76.61144965 179.2357215 -74.84789966 179.23766191 -73.08435059 179.24017334 C-69.38546215 179.2431253 -65.6866702 179.23882466 -61.98779297 179.22949219 C-57.23940094 179.21809759 -52.49123498 179.22465668 -47.74285126 179.23663712 C-44.10038541 179.24385378 -40.45797342 179.24156868 -36.81550598 179.23638153 C-35.06435622 179.2350445 -33.31320161 179.23669463 -31.5620575 179.24134064 C-29.11741119 179.24640273 -26.67313432 179.23870031 -24.22851562 179.22753906 C-23.13595207 179.23361176 -23.13595207 179.23361176 -22.02131653 179.23980713 C-17.95089402 179.32441711 -17.95089402 179.32441711 -14.78125 176.96875 C-14.43789369 174.2923316 -14.18341707 171.65509769 -13.96875 168.96875 C-12.35322345 153.88893225 -5.40982096 147.30490208 5.53515625 137.49023438 C21.64060673 122.93554073 29.03837611 101.19440195 30.21875 79.96875 C30.42349496 55.22020247 20.68367851 33.50955596 3.59375 15.84375 C-12.45862934 -0.06327817 -33.77396405 -8.19035277 -56.28125 -8.40625 C-80.46917249 -8.17423156 -100.57695778 1.07674692 -117.78125 17.96875 Z " fill="#ededed" transform="translate(225.78125,101.03125)"/>
<path d="M0 0 C3.0625 0.25 3.0625 0.25 6 1 C7.42242408 3.84484817 7.14601282 6.29883589 7.17578125 9.4765625 C7.19962891 10.78753906 7.22347656 12.09851563 7.24804688 13.44921875 C7.28296616 15.52923591 7.3123939 17.60869209 7.32592773 19.68896484 C7.34521935 32.04844867 7.34521935 32.04844867 13.34033203 42.50585938 C19.76446576 48.48041027 27.43911703 48.30855302 35.68359375 48.30078125 C36.69792984 48.30506638 37.71226593 48.3093515 38.75733948 48.31376648 C40.89461524 48.319489 43.03191046 48.32002543 45.16918945 48.31567383 C48.42368037 48.31251342 51.67726183 48.33600126 54.93164062 48.36132812 C57.01562386 48.36360141 59.09960952 48.36430448 61.18359375 48.36328125 C62.63082069 48.37709587 62.63082069 48.37709587 64.10728455 48.39118958 C72.14004155 48.33667269 79.09822589 46.90177411 85 41 C85.74629777 39.80632302 86.45889644 38.59106946 87.140625 37.359375 C87.75421875 36.25078125 88.3678125 35.1421875 89 34 C87.78517441 34.00666183 87.78517441 34.00666183 86.54580688 34.01345825 C78.92347403 34.05348751 71.30119194 34.08396015 63.67878151 34.10362434 C59.75976716 34.11407365 55.84083947 34.12825362 51.921875 34.15087891 C48.14176961 34.17256661 44.36174772 34.18455998 40.58158493 34.18975449 C39.13744161 34.19345759 37.693303 34.2006886 36.2491951 34.21146011 C34.23079106 34.22592017 32.21230348 34.22681645 30.19384766 34.22705078 C28.46843246 34.23371262 28.46843246 34.23371262 26.7081604 34.24050903 C24 34 24 34 22 32 C21.6875 29 21.6875 29 22 26 C25.5655396 23.6229736 27.07871361 23.75659077 31.30737305 23.77294922 C33.25905647 23.77317581 33.25905647 23.77317581 35.25016785 23.77340698 C36.67068637 23.78362031 38.09120333 23.7940523 39.51171875 23.8046875 C40.96474513 23.80841817 42.41777403 23.81126489 43.87080383 23.81326294 C47.69311482 23.82089519 51.51527354 23.84054008 55.33752441 23.8626709 C59.2386672 23.88313817 63.13983461 23.89226654 67.04101562 23.90234375 C74.69408783 23.92378646 82.34700317 23.95896516 90 24 C90 19.38 90 14.76 90 10 C87.1232959 10.01571045 87.1232959 10.01571045 84.18847656 10.03173828 C77.85018349 10.06399589 71.51190985 10.08697295 65.17355728 10.10362434 C61.33082746 10.11405904 57.4881865 10.12821245 53.64550781 10.15087891 C49.93671547 10.17261857 46.22800856 10.18457099 42.51915741 10.18975449 C41.10457769 10.19344823 39.69000261 10.2006612 38.27545929 10.21146011 C36.29338648 10.2259891 34.3112276 10.22681704 32.32910156 10.22705078 C31.20103088 10.231492 30.07296021 10.23593323 28.91070557 10.24050903 C26.0595946 10.00492425 24.41298859 9.48261061 22 8 C21.875 5.125 21.875 5.125 22 2 C24.86634821 -0.86634821 26.86556456 -0.26667634 30.88061523 -0.29052734 C31.58809906 -0.29724457 32.29558289 -0.30396179 33.02450562 -0.31088257 C35.36927259 -0.32992082 37.71375425 -0.33378958 40.05859375 -0.3359375 C41.68522765 -0.34236118 43.31186038 -0.34908921 44.93849182 -0.35610962 C48.35070475 -0.3680968 51.76281632 -0.37178895 55.17504883 -0.37060547 C59.5513586 -0.37040215 63.92701993 -0.39771098 68.30317593 -0.43214989 C71.66346736 -0.45436734 75.02360144 -0.45844461 78.38395882 -0.45738602 C79.99754129 -0.45974951 81.61112761 -0.46861499 83.22463799 -0.48405075 C85.48021978 -0.50360871 87.73438653 -0.49791457 89.98999023 -0.48583984 C91.27413315 -0.48868988 92.55827606 -0.49153992 93.8813324 -0.49447632 C97 0 97 0 98.91386414 1.86471558 C100.30338169 4.59643202 100.38799479 6.59504359 100.3984375 9.65625 C100.40230469 10.76226562 100.40617187 11.86828125 100.41015625 13.0078125 C100.39855469 14.16023438 100.38695312 15.31265625 100.375 16.5 C100.38660156 17.62148438 100.39820313 18.74296875 100.41015625 19.8984375 C100.37321318 30.56267122 99.2325915 40.67861633 92.1015625 49.0234375 C85.80962895 54.94112965 79.24090293 58.08690419 70.65576172 58.17700195 C69.05291824 58.19625481 69.05291824 58.19625481 67.41769409 58.21589661 C66.26665192 58.22328354 65.11560974 58.23067047 63.9296875 58.23828125 C62.73828156 58.246353 61.54687561 58.25442474 60.31936646 58.26274109 C57.79593354 58.27657142 55.27248199 58.28729827 52.74902344 58.29516602 C48.91044102 58.31234142 45.07272832 58.35623476 41.234375 58.40039062 C38.77865215 58.41052135 36.32292199 58.41903626 33.8671875 58.42578125 C32.15884232 58.45204338 32.15884232 58.45204338 30.41598511 58.47883606 C20.88981661 58.4532084 12.66525409 56.38881112 5.53515625 49.78125 C-0.03026609 43.32366072 -2.15504116 36.72668831 -2.16796875 28.33984375 C-2.17296135 27.22132774 -2.17296135 27.22132774 -2.17805481 26.08021545 C-2.18311236 24.50587582 -2.1854635 22.93152549 -2.18530273 21.35717773 C-2.18749499 18.94301884 -2.20567832 16.52931278 -2.22460938 14.11523438 C-2.22754234 12.58593907 -2.22952778 11.05664158 -2.23046875 9.52734375 C-2.23765427 8.80336899 -2.24483978 8.07939423 -2.25224304 7.33348083 C-2.22883303 2.22883303 -2.22883303 2.22883303 0 0 Z " fill="#ededed" transform="translate(121,302)"/>
<path d="M0 0 C2.73901367 -0.52587891 2.73901367 -0.52587891 6 0 C8.33016074 1.74276488 10.17128896 3.35192237 12.17578125 5.4140625 C12.74523972 5.98015228 13.31469818 6.54624207 13.90141296 7.12948608 C15.10621967 8.33459161 16.30357172 9.54718961 17.49389648 10.76660156 C19.27761956 12.5893563 21.08802468 14.3816239 22.90429688 16.171875 C38.2349545 31.51309174 48.12954182 48.10554437 48.30354309 70.26878357 C48.30263168 71.55035843 48.30172028 72.83193329 48.30078125 74.15234375 C48.30467544 75.50232574 48.30901159 76.85230653 48.31376648 78.20228577 C48.3211789 81.01193243 48.32097055 83.82145325 48.31567383 86.63110352 C48.30983586 90.23486914 48.32693685 93.83812799 48.3500185 97.44180965 C48.36471506 100.2204337 48.36563403 102.99893378 48.36250877 105.7775898 C48.36327186 107.75303024 48.37714911 109.72845147 48.39118958 111.70384216 C48.38496078 112.89590775 48.37873199 114.08797333 48.37231445 115.31616211 C48.37294388 116.36823349 48.3735733 117.42030487 48.3742218 118.5042572 C48.18898201 119.73964989 48.18898201 119.73964989 48 121 C45 123 45 123 42.58795166 122.86711121 C39.45162974 121.81626473 37.93803117 120.45161896 35.59277344 118.1262207 C34.7555072 117.3047908 33.91824097 116.4833609 33.05560303 115.63703918 C32.16584778 114.74232407 31.27609253 113.84760895 30.359375 112.92578125 C29.43658752 112.00919235 28.51380005 111.09260345 27.56304932 110.14823914 C25.61310844 108.20869399 23.67081884 106.26186362 21.73339844 104.30981445 C19.25470102 101.81393492 16.75624708 99.33896758 14.25143051 96.86933613 C11.85889868 94.50409678 9.48518008 92.12032201 7.109375 89.73828125 C6.21152283 88.85368729 5.31367065 87.96909332 4.38861084 87.05769348 C3.56395325 86.22050278 2.73929565 85.38331207 1.88964844 84.52075195 C1.16082458 83.79096634 0.43200073 83.06118073 -0.31890869 82.3092804 C-2.36841977 79.49390938 -2.83945395 77.45985642 -3 74 C-1 72 -1 72 1.63720703 71.42382812 C6.79871281 72.3081866 9.27093741 75.52660162 12.8046875 79.21875 C13.8906572 80.31745422 13.8906572 80.31745422 14.99856567 81.43835449 C17.30517861 83.77852394 19.59005005 86.13869295 21.875 88.5 C23.43611131 90.09120736 24.99859606 91.68106852 26.5625 93.26953125 C30.39106754 97.16421318 34.20199589 101.07552003 38 105 C38.07495628 99.39903588 38.1289776 93.79837289 38.16479492 88.19702148 C38.17974885 86.29723007 38.20011943 84.39747236 38.22631836 82.49780273 C38.40542487 69.16314734 38.5124298 56.32079692 31.875 44.3125 C31.35679687 43.33925781 30.83859375 42.36601562 30.3046875 41.36328125 C23.95093931 31.34474847 14.25892995 23.20442363 5.7578125 15.06054688 C4.89929688 14.21943359 4.04078125 13.37832031 3.15625 12.51171875 C2.38087891 11.76365967 1.60550781 11.01560059 0.80664062 10.24487305 C-1.22204165 7.72409825 -1.84576809 6.21959117 -2 3 C-1.34 2.01 -0.68 1.02 0 0 Z " fill="#ededed" transform="translate(229,279)"/>
<path d="M0 0 C2.29980469 0.41748047 2.29980469 0.41748047 4.29980469 2.41748047 C4.7512207 4.69213867 4.7512207 4.69213867 4.29980469 7.41748047 C2.61424456 9.5044093 1.02079802 11.20971037 -0.92285156 13.02294922 C-1.46115097 13.54705887 -1.99945038 14.07116852 -2.55406189 14.61116028 C-4.27881264 16.28813313 -6.01907051 17.94765702 -7.76269531 19.60498047 C-20.94600768 32.20352661 -34.45897419 46.29587654 -35.04077148 65.68359375 C-35.04030543 67.53506144 -35.02389601 69.38658029 -34.99316406 71.23779297 C-34.98891922 72.22246552 -34.98467438 73.20713806 -34.9803009 74.22164917 C-34.96367236 77.32888571 -34.92605081 80.43544404 -34.88769531 83.54248047 C-34.87262799 85.66486685 -34.8589432 87.78726353 -34.84667969 89.90966797 C-34.81382088 95.07919524 -34.76215015 100.24822336 -34.70019531 105.41748047 C-34.30009247 105.00405396 -33.89998962 104.59062744 -33.48776245 104.16467285 C-29.32031423 99.86447794 -25.13188766 95.58555696 -20.93066406 91.31835938 C-19.36561089 89.72313416 -17.80598513 88.12256528 -16.25195312 86.51660156 C-14.01700072 84.20886335 -11.76322535 81.92105526 -9.50488281 79.63623047 C-8.81401581 78.91439575 -8.1231488 78.19256104 -7.41134644 77.44885254 C-2.50386464 72.53800223 -2.50386464 72.53800223 1.72509766 71.90380859 C4.29980469 72.41748047 4.29980469 72.41748047 5.29980469 73.41748047 C5.69754162 76.97855181 5.71107108 78.81228449 3.66976929 81.81614685 C2.52443222 82.97316856 2.52443222 82.97316856 1.35595703 84.15356445 C0.4944101 85.03725204 -0.36713684 85.92093964 -1.25479126 86.83140564 C-2.20711114 87.77630478 -3.160288 88.72034088 -4.11425781 89.66357422 C-5.08718268 90.64308362 -6.05928827 91.62340742 -7.03060913 92.60450745 C-9.06711084 94.65435035 -11.11429681 96.69272342 -13.16943359 98.72387695 C-15.8013561 101.32718939 -18.40279267 103.95873962 -20.99674416 106.59982204 C-22.99694969 108.62922061 -25.01334868 110.64188826 -27.03492355 112.64998055 C-28.00105415 113.61395839 -28.96187917 114.58328436 -29.91719437 115.55798149 C-31.25456529 116.91786085 -32.61680464 118.25314751 -33.97998047 119.5871582 C-34.74831207 120.35293686 -35.51664368 121.11871552 -36.30825806 121.90769958 C-38.70019531 123.41748047 -38.70019531 123.41748047 -41.93270874 123.28187561 C-42.84597931 122.99662521 -43.75924988 122.71137482 -44.70019531 122.41748047 C-45.96406216 119.88974678 -45.840886 118.11749385 -45.86132812 115.2878418 C-45.87093567 114.21524612 -45.88054321 113.14265045 -45.89044189 112.03755188 C-45.89469177 110.86999863 -45.89894165 109.70244537 -45.90332031 108.49951172 C-45.90902039 107.2949382 -45.91472046 106.09036469 -45.92059326 104.84928894 C-45.93006116 102.2877999 -45.93658431 99.72629858 -45.94042969 97.16479492 C-45.95004359 93.29111503 -45.98101183 89.41798675 -46.01269531 85.54443359 C-46.15020073 54.37422533 -46.15020073 54.37422533 -39.07519531 41.10498047 C-38.78257813 40.49332031 -38.48996094 39.88166016 -38.18847656 39.25146484 C-35.05138291 33.12333656 -30.41254171 28.3713602 -25.70019531 23.41748047 C-25.24513611 22.93745575 -24.7900769 22.45743103 -24.32122803 21.96286011 C-21.40124567 18.889943 -18.4487484 15.85162443 -15.46923828 12.83642578 C-14.4440565 11.79443774 -13.42430246 10.74708541 -12.40966797 9.69482422 C-10.91946659 8.15006278 -9.41364603 6.6222278 -7.90332031 5.09716797 C-7.02321289 4.19724121 -6.14310547 3.29731445 -5.23632812 2.37011719 C-2.70019531 0.41748047 -2.70019531 0.41748047 0 0 Z " fill="#ededed" transform="translate(106.7001953125,278.58251953125)"/>
</g>
</svg>
